<?xml version="1.0" standalone="no"?>
<!DOCTYPE svg PUBLIC "-//W3C//DTD SVG 20010904//EN"
 "http://www.w3.org/TR/2001/REC-SVG-20010904/DTD/svg10.dtd">
<svg version="1.0" xmlns="http://www.w3.org/2000/svg"
 width="600.000000pt" height="518.000000pt" viewBox="0 0 600.000000 518.000000"
 preserveAspectRatio="xMidYMid meet">

<g transform="translate(0.000000,518.000000) scale(0.100000,-0.100000)"
fill="#000000" stroke="none">
<path d="M2320 5110 l0 -70 -135 0 -135 0 0 -65 0 -65 -70 0 -70 0 0 -70 0
-70 -135 0 -134 0 -3 -67 -3 -68 -65 -1 -65 -2 -3 -136 -3 -136 -70 0 -70 0 2
-82 c2 -46 2 -138 1 -205 l-2 -123 -65 0 -65 0 0 -270 0 -270 65 0 65 0 0
-205 0 -205 70 0 70 0 0 -135 0 -134 68 -3 67 -3 3 -67 3 -68 64 0 65 0 0
-205 0 -205 -205 0 -205 0 0 -135 0 -135 70 0 70 0 0 -70 0 -70 135 0 135 0 0
-65 0 -65 -135 0 -135 0 0 -70 0 -70 70 0 70 0 0 -205 0 -205 65 0 65 0 0 -64
0 -64 -135 -7 -135 -7 0 -134 0 -134 -65 0 -65 0 0 -67 0 -68 950 0 950 0 0
138 0 137 -65 0 -64 0 -3 68 -3 67 -66 5 -66 5 1 60 1 60 68 3 67 3 0 134 0
135 135 0 135 0 0 70 0 70 205 0 205 0 0 -475 0 -475 270 0 270 0 0 475 0 475
340 0 340 0 0 70 0 70 -405 0 -405 0 -1 75 c-1 41 -1 93 -1 115 0 85 -5 80 67
80 l65 0 0 475 0 475 -270 0 -270 0 0 -610 0 -610 -64 0 -64 0 -7 135 c-4 75
-5 152 -2 171 3 20 3 80 0 135 l-6 98 -66 3 -66 3 0 405 0 405 -204 3 -204 2
5 -127 c3 -71 3 -102 1 -70 l-4 57 -139 0 -139 0 -4 -62 c-2 -35 -3 -20 -1 32
2 52 7 112 10 133 l7 37 -212 0 -211 0 0 -71 0 -71 -31 7 c-18 4 -78 4 -136 0
l-103 -7 2 -201 3 -202 68 -3 67 -3 0 -63 c0 -72 5 -76 88 -68 l42 4 0 64 0
64 -65 0 -65 0 0 70 0 70 65 0 65 0 0 38 c-1 54 -25 80 -80 85 l-45 4 53 3
c28 1 58 3 65 4 8 1 13 24 15 69 l3 67 98 0 98 0 7 -40 c9 -57 26 -90 48 -90
14 0 18 -8 18 -34 0 -28 8 -41 42 -70 l42 -36 -42 0 -42 0 0 -70 0 -71 68 3
67 3 1 50 c1 28 2 58 3 68 1 15 14 17 131 17 l129 0 3 68 3 67 72 3 c68 3 72
2 75 -20 2 -19 7 -15 25 24 13 26 26 65 29 87 6 39 9 41 40 41 l34 0 0 -88 c0
-81 -3 -92 -30 -135 -27 -43 -33 -47 -70 -47 l-40 0 0 -70 0 -70 70 0 70 0 0
-65 0 -65 -67 -1 c-38 -1 -98 0 -135 1 l-68 2 -2 -39 c-1 -21 -1 -53 1 -70 l2
-33 -134 0 c-153 0 -147 -4 -147 86 l0 54 -169 0 c-93 0 -183 -3 -200 -6 -31
-6 -31 -7 -31 -70 l0 -64 135 0 136 0 -3 -67 -3 -68 -105 -2 c-58 -1 -120 0
-137 3 l-33 5 0 64 0 65 -135 0 -135 0 0 70 0 70 -65 0 -65 0 0 410 0 410 68
0 67 0 -3 65 -4 65 71 0 71 0 0 70 0 70 135 0 135 0 0 -70 0 -70 275 0 275 0
0 205 0 205 65 0 65 0 0 70 0 70 70 0 70 0 0 65 0 65 65 0 65 0 0 70 0 70 70
0 70 0 0 70 0 70 70 0 70 0 0 65 0 65 65 0 65 0 0 70 0 70 70 0 70 0 0 135 0
135 -70 0 -70 0 0 70 0 70 -135 0 -135 0 0 65 0 65 -202 2 -203 3 -3 68 -3 67
-474 0 -475 0 0 -70z m743 -2397 c-34 -2 -93 -2 -130 0 -37 2 -9 3 62 3 72 0
102 -1 68 -3z m1027 -58 l0 -65 -65 0 -65 0 0 65 0 65 65 0 65 0 0 -65z m-680
-540 l0 -65 -70 0 -70 0 0 65 0 65 70 0 70 0 0 -65z m-270 -113 c0 -20 -3 -81
-7 -134 l-6 -98 -129 0 c-70 0 -128 3 -128 8 -12 262 -12 260 12 264 13 2 76
2 141 0 l117 -3 0 -37z m270 -162 l0 -70 -70 0 -70 0 0 63 c0 35 3 67 7 70 3
4 35 7 70 7 l63 0 0 -70z m-1230 -135 l0 -65 -65 0 -65 0 0 65 0 65 65 0 65 0
0 -65z m410 -275 l0 -70 -205 0 -205 0 0 70 0 70 205 0 205 0 0 -70z m410 0
l0 -70 -135 0 -135 0 0 70 0 70 135 0 135 0 0 -70z m-410 -335 l0 -135 -65 0
-65 0 0 65 0 65 -76 0 -76 0 4 -65 3 -65 -61 0 -62 0 -7 124 c-4 69 -4 130 0
135 4 7 76 11 206 11 l199 0 0 -135z m410 65 l0 -70 -70 0 -70 0 0 -65 0 -65
-65 0 -65 0 0 135 0 135 135 0 135 0 0 -70z m-960 -135 l0 -65 -62 0 -63 0 3
65 4 65 59 0 59 0 0 -65z m2050 -275 l0 -70 -70 0 -70 0 0 63 c0 35 3 67 7 70
3 4 35 7 70 7 l63 0 0 -70z"/>
<path d="M3280 2360 c0 -16 5 -30 10 -30 6 0 10 14 10 30 0 17 -4 30 -10 30
-5 0 -10 -13 -10 -30z"/>
<path d="M140 1570 l0 -70 475 0 475 0 0 70 0 70 -475 0 -475 0 0 -70z"/>
<path d="M1370 205 l0 -65 270 0 270 0 0 65 0 65 -270 0 -270 0 0 -65z"/>
<path d="M3140 205 l0 -65 200 0 200 0 0 65 0 65 -200 0 -200 0 0 -65z"/>
</g>
</svg>
